<?xml version="1.0" encoding="UTF-8" standalone="no"?>
<!-- Created with Inkscape (http://www.inkscape.org/) -->

<svg
   xmlns:dc="http://purl.org/dc/elements/1.1/"
   xmlns:cc="http://creativecommons.org/ns#"
   xmlns:rdf="http://www.w3.org/1999/02/22-rdf-syntax-ns#"
   xmlns:svg="http://www.w3.org/2000/svg"
   xmlns="http://www.w3.org/2000/svg"
   xmlns:sodipodi="http://sodipodi.sourceforge.net/DTD/sodipodi-0.dtd"
   xmlns:inkscape="http://www.inkscape.org/namespaces/inkscape"
   width="24"
   height="24"
   viewBox="0 0 6.3499999 6.3500002"
   version="1.1"
   id="svg123"
   inkscape:version="0.92.5 (2060ec1f9f, 2020-04-08)"
   sodipodi:docname="icon.svg"
   inkscape:export-filename="/media/tomsneddon/CS_BACKUP/toms-vaptcha/assets/icon/icon-128x128.png"
   inkscape:export-xdpi="512"
   inkscape:export-ydpi="512">
  <defs
     id="defs117">
    <clipPath
       id="ytp-svg-volume-animation-mask">
      <path
         id="path910"
         d="M 14.35,-0.14 8.49,5.72 29.22,26.5 35.08,20.59 Z"
         inkscape:connector-curvature="0" />
      <path
         id="path912"
         d="M 7.07,6.87 -1.11,15.33 19.61,36.11 27.8,27.6 Z"
         inkscape:connector-curvature="0" />
      <path
         id="path914"
         d="M 9.09,5.2 6.47,7.88 26.82,28.77 29.66,25.99 Z"
         class="ytp-svg-volume-animation-mover"
         inkscape:connector-curvature="0" />
    </clipPath>
    <clipPath
       id="ytp-svg-volume-animation-slash-mask">
      <path
         id="path917"
         d="m -11.45,-15.55 -4.44,4.51 L 4.56,9.9 9.11,5.24 Z"
         class="ytp-svg-volume-animation-mover"
         inkscape:connector-curvature="0" />
    </clipPath>
    <style
       id="style35"
       type="text/css" />
    <style
       id="style133"
       type="text/css" />
    <style
       id="style186"
       type="text/css" />
    <style
       id="style1039"
       type="text/css" />
  </defs>
  <sodipodi:namedview
     id="base"
     pagecolor="#ffffff"
     bordercolor="#666666"
     borderopacity="1.0"
     inkscape:pageopacity="0.0"
     inkscape:pageshadow="2"
     inkscape:zoom="34.540916"
     inkscape:cx="5.4834806"
     inkscape:cy="11.999883"
     inkscape:document-units="mm"
     inkscape:current-layer="g184"
     showgrid="false"
     units="px"
     inkscape:window-width="2560"
     inkscape:window-height="1350"
     inkscape:window-x="0"
     inkscape:window-y="0"
     inkscape:window-maximized="1" />
  <metadata
     id="metadata120">
    <rdf:RDF>
      <cc:Work
         rdf:about="">
        <dc:format>image/svg+xml</dc:format>
        <dc:type
           rdf:resource="http://purl.org/dc/dcmitype/StillImage" />
        <dc:title />
      </cc:Work>
    </rdf:RDF>
  </metadata>
  <g
     inkscape:label="TomSneddon"
     inkscape:groupmode="layer"
     id="layer1"
     transform="translate(0,-290.64998)">
    <g
       id="g94"
       transform="matrix(0.94125622,0,0,0.94125622,-0.03211241,17.07494)"
       style="display:inline">
      <path
         inkscape:label="rect240-6"
         style="opacity:0.95999995;fill:#008000;fill-opacity:1;stroke:none;stroke-width:0.03097632;stroke-opacity:1"
         d="m 0.03209441,290.65695 c -0.0018635,0 -0.0033735,0.002 -0.0033735,0.003 v 0.32449 c 0,0.002 0.0015098,0.003 0.0033735,0.003 h 0.4238544 v 1.48968 c 0,0.002 0.001464,0.003 0.003293,0.003 H 1.0238992 c 0.00183,0 0.00333,-10e-4 0.00333,-0.003 v -0.10253 a 0.79448273,0.79448273 0 0 1 -0.28321221,-0.60707 0.79448273,0.79448273 0 0 1 0.28321221,-0.60811 v -0.17197 h 0.8175081 c 0.00186,0 0.00337,-0.002 0.00337,-0.003 v -0.32449 c 0,-0.002 -0.00151,-0.003 -0.00337,-0.003 z m 4.49962759,0.002 v 0.0154 h 0.048032 v 0.11992 h 0.018394 v -0.11992 H 4.64618 v -0.0154 z m 0.1321281,0 v 0.1353 h 0.017791 v -0.11884 l 0.03486,0.0928 h 0.018434 l 0.034859,-0.0928 v 0.11884 h 0.017872 v -0.1353 h -0.027269 l -0.034739,0.0921 -0.034498,-0.0921 z m -1.0893547,0.19016 -0.1278309,0.0791 v 0.21848 H 2.1632539 c -0.00173,0 -0.00313,0.001 -0.00313,0.003 v 0.10751 0.0178 a 0.79448273,0.79448273 0 0 1 0.1728106,0.49345 0.79448273,0.79448273 0 0 1 -0.1728106,0.49462 v 0.18128 c 0,0.002 0.00151,0.003 0.00337,0.003 h 0.3821274 c 0.00187,0 0.00337,-0.002 0.00337,-0.003 v -0.97112 h 0.3016458 v 0.64554 c 0,0.001 0.00109,0.003 0.00249,0.003 h 0.2973888 c 0.0014,0 0.00253,-0.001 0.00253,-0.003 v -0.64554 h 0.2936138 v 0.4053 l 0.1276703,0.079 H 3.7233303 3.935619 4.2501565 c 0.00167,0 0.00301,10e-4 0.00301,0.003 v 0.52682 c 0,0.002 -0.00135,0.003 -0.00301,0.003 H 3.7233303 c -0.00167,0 -0.00301,-10e-4 -0.00301,-0.003 v -0.0919 -0.067 -0.0829 H 3.5862624 3.4466645 v 0.14996 0.37567 c 0,0.002 0.00135,0.003 0.00301,0.003 h 0.9578693 l 0.1096382,-0.0679 v -0.96434 l -0.1311242,-0.0812 H 4.2501561 4.1728068 3.7233299 c -0.00167,0 -0.00301,-10e-4 -0.00301,-0.003 v -0.52683 c 0,-0.002 0.00135,-0.003 0.00301,-0.003 h 0.5268262 c 0.00167,0 0.00301,0.001 0.00301,0.003 v 0.0997 0.0672 0.0749 h 0.1209233 0.1430922 v -0.14209 -0.37847 c 0,-0.002 -0.00135,-0.003 -0.00301,-0.003 z"
         id="rect240-6"
         inkscape:connector-curvature="0" />
      <path
         style="display:inline;opacity:1;fill:#ff0000;stroke-width:0.00269685"
         d="m 1.1775682,291.29497 v 3e-5 a 0.11966837,0.11966837 0 0 0 -0.1169144,0.11375 v 0.69489 a 0.11966837,0.11966837 0 0 0 0.1765185,0.0992 l 0.045563,-0.0232 v 0.002 l 0.4216426,-0.21242 0.4216425,-0.21242 -0.4216425,-0.21253 -0.4216426,-0.21242 v 6.1e-4 l -0.045563,-0.0232 a 0.11966837,0.11966837 0 0 0 -0.059604,-0.0144 z m 0.2364006,0.26215 a 0.05163194,0.05163194 0 0 1 0.025684,0.006 l 0.019671,0.01 v -3.4e-4 l 0.1819054,0.0916 0.1819402,0.0917 -0.1819402,0.0916 -0.1819054,0.0917 v -8.7e-4 l -0.019671,0.01 a 0.05163194,0.05163194 0 0 1 -0.076147,-0.0428 v -0.29979 a 0.05163194,0.05163194 0 0 1 0.050464,-0.0491 z"
         id="path48"
         inkscape:connector-curvature="0"
         inkscape:label="O1" />
    </g>
    <g
       id="g184"
       transform="matrix(1.0139851,-0.06165936,0.06165936,1.0139851,-17.906345,-4.4889858)">
      <path
         style="display:inline;opacity:1;fill:#2693ff;stroke-width:0.01350278;fill-opacity:1"
         d="M 9.3378906,8.8261719 C 7.0432264,8.8537732 4.6137431,11.93442 1.7363281,12.689453 l 0.2265625,0.359375 a 1.3095646,1.3095646 0 0 1 0.8789063,-0.416016 1.3095646,1.3095646 0 0 1 1.3867187,1.228516 1.3095646,1.3095646 0 0 1 -0.1113281,0.615234 c 2.5972449,-0.423505 3.5617588,-5.4483406 7.0976565,-1.224609 3.324609,5.454117 6.473656,1.569193 9.873047,-1.541015 L 19.291016,9.7246094 C 16.597906,12.926577 14.594738,15.648638 12.179688,10.818359 11.239685,9.3456293 10.300239,8.8146574 9.3378906,8.8261719 Z"
         transform="matrix(0.25997283,0.01580867,-0.01580867,0.25997283,-0.04003296,291.06591)"
         id="path137"
         inkscape:connector-curvature="0" />
      <path
         style="display:inline;opacity:1;fill:#2693ff;fill-opacity:1;stroke:none;stroke-width:0.0573945;stroke-miterlimit:4;stroke-dasharray:none;stroke-opacity:1"
         d="m 6.063945,293.23541 -1.5700582,0.43869 0.7762757,1.00389 0.13849,0.17565 c 9.527e-4,0.002 0.00193,-2.3e-4 0.00329,-3e-5 z"
         id="rect819"
         inkscape:connector-curvature="0" />
      <path
         style="display:inline;opacity:1;fill:#2693ff;fill-opacity:1;stroke:none;stroke-width:0.35118279;stroke-miterlimit:4;stroke-dasharray:none;stroke-opacity:1"
         d="m 3.0253906,11.300781 a 2.6413186,2.6413186 0 0 0 -0.2636718,0.0039 2.6413186,2.6413186 0 0 0 -2.47656255,2.796874 2.6413186,2.6413186 0 0 0 2.79687495,2.47461 2.6413186,2.6413186 0 0 0 2.4765626,-2.796875 2.6413186,2.6413186 0 0 0 -2.5332032,-2.478516 z m -0.1738281,1.476563 a 1.1648089,1.1648089 0 0 1 1.2324219,1.091797 1.1648089,1.1648089 0 0 1 -1.0917969,1.234375 1.1648089,1.1648089 0 0 1 -1.2324219,-1.091797 1.1648089,1.1648089 0 0 1 1.0917969,-1.234375 z"
         transform="matrix(0.25997283,0.01580867,-0.01580867,0.25997283,-0.04003296,291.06591)"
         id="path152"
         inkscape:connector-curvature="0" />
    </g>
    <path
       style="fill:#008000;stroke-width:0.00446148"
       d="m 2.0462867,294.97653 a 0.4502976,0.4502976 0 0 0 -0.3007568,0.79995 l 0.6154663,0.49764 a 0.4945554,0.4945554 0 0 0 -0.2506307,0.46871 0.49460001,0.49460001 0 0 0 -0.3648356,0.24959 H 2.666404 l -0.177767,-0.14366 a 0.18300175,0.18300175 0 0 1 0.22996,-0.28473 l 0.3364138,0.27233 a 0.15616666,0.15616666 0 1 0 0.1963703,-0.24288 l -1.3094808,-1.05936 a 0.1379937,0.1379937 0 1 1 0.1736328,-0.21446 l 1.5384075,1.24385 a 0.15615191,0.15615191 0 0 0 0.214457,-0.22531 c -0.044767,-0.11428 -0.1436852,-0.36225 -0.1524455,-0.38395 a 0.18292081,0.18292081 0 0 1 0.10542,-0.23513 0.18292081,0.18292081 0 0 1 0.2361613,0.1049 l 0.00259,0.006 c 0.00412,0.009 0.2884705,0.66605 0.5002279,1.16221 h 0.3395141 c -0.2107308,-0.49739 -0.523344,-1.21828 -0.5524212,-1.28468 a 0.49522461,0.49522461 0 0 0 -0.9518798,0.24495 l -1.0836518,-0.87624 a 0.4502976,0.4502976 0 0 0 -0.2656169,-0.0992 z"
       id="path1043"
       inkscape:connector-curvature="0" />
  </g>
</svg>
