<?xml version="1.0" encoding="UTF-8" standalone="no"?>
<svg
   xmlns:dc="http://purl.org/dc/elements/1.1/"
   xmlns:cc="http://creativecommons.org/ns#"
   xmlns:rdf="http://www.w3.org/1999/02/22-rdf-syntax-ns#"
   xmlns:svg="http://www.w3.org/2000/svg"
   xmlns="http://www.w3.org/2000/svg"
   xmlns:sodipodi="http://sodipodi.sourceforge.net/DTD/sodipodi-0.dtd"
   xmlns:inkscape="http://www.inkscape.org/namespaces/inkscape"
   t="1638017405487"
   class="icon"
   viewBox="0 0 1211.25 320.00002"
   version="1.1"
   p-id="5301"
   width="68"
   height="40"
   id="svg6"
   sodipodi:docname="TomS.svg"
   inkscape:version="0.92.5 (2060ec1f9f, 2020-04-08)">
  <metadata
     id="metadata12">
    <rdf:RDF>
      <cc:Work
         rdf:about="">
        <dc:format>image/svg+xml</dc:format>
        <dc:type
           rdf:resource="http://purl.org/dc/dcmitype/StillImage" />
        <dc:title></dc:title>
      </cc:Work>
    </rdf:RDF>
  </metadata>
  <defs
     id="defs10" />
  <sodipodi:namedview
     pagecolor="#ffffff"
     bordercolor="#666666"
     borderopacity="1"
     objecttolerance="10"
     gridtolerance="10"
     guidetolerance="10"
     inkscape:pageopacity="0"
     inkscape:pageshadow="2"
     inkscape:window-width="2560"
     inkscape:window-height="1350"
     id="namedview8"
     showgrid="false"
     inkscape:zoom="15.879816"
     inkscape:cx="53.296689"
     inkscape:cy="24.137014"
     inkscape:window-x="0"
     inkscape:window-y="0"
     inkscape:window-maximized="1"
     inkscape:current-layer="svg6" />
  <path
     d="m 0.76684045,-28.766314 a 0.85598132,0.84891283 0 0 0 -0.8559813,0.84892 v 81.90999 c 0,0.47499 0.3928912,0.84891 0.8559813,0.84891 H 108.63974 V 430.86265 c 0,0.45817 0.37592,0.83095 0.85599,0.83095 h 143.70071 a 0.85598132,0.84891283 0 0 0 0.85598,-0.84778 V 404.9742 A 202.20864,200.53885 0 0 1 181.97109,251.74776 202.20864,200.53885 0 0 1 254.03657,98.248355 V 54.841506 h 208.0805 a 0.85598132,0.84891283 0 0 0 0.85597,-0.84891 v -81.90999 a 0.85598132,0.84891283 0 0 0 -0.85597,-0.84892 z M 1146.0124,-28.291334 v 3.88862 h 12.2214 V 5.8650656 h 4.6899 V -24.402714 h 12.2226 v -3.90545 z m 33.6357,0 V 5.8650656 h 4.5176 V -24.132104 l 8.8679,23.42707964 h 4.7079 L 1206.607,-24.132104 V 5.8650656 h 4.5539 V -28.291334 h -6.9497 l -8.8316,23.2406896 -8.7818,-23.2575196 z M 902.37909,19.701446 869.8552,39.681226 V 94.820135 H 543.16811 c -0.42804,0 -0.78695,0.33912 -0.78695,0.72989 v 31.643345 a 202.20864,200.53885 0 0 1 43.99136,124.55551 202.20864,200.53885 0 0 1 -43.99136,124.84288 v 45.76719 c 0,0.47494 0.37594,0.84888 0.85602,0.84888 h 97.26031 a 0.85598132,0.84891283 0 0 0 0.85709,-0.84888 V 177.22194 h 76.77114 v 162.95529 c 0,0.33911 0.27399,0.64455 0.63408,0.64455 h 75.69318 a 0.66123446,0.65577415 0 0 0 0.64993,-0.64567 v -162.971 h 74.71834 v 102.31533 l 32.50692,19.93036 h 171.99573 c 0.4279,0 0.7698,0.33911 0.7698,0.76355 V 433.205 c 0,0.40761 -0.3419,0.7636 -0.7698,0.7636 H 940.24271 a 0.76993033,0.76357243 0 0 1 -0.76991,-0.7636 v -61.04531 h -69.65155 v 132.70214 c 0,0.40761 0.34194,0.74672 0.76992,0.74672 h 243.80533 l 27.9009,-17.14669 V 245.0429 l -33.3788,-20.47269 H 940.24271 a 0.75294666,0.74672901 0 0 1 -0.76991,-0.76362 V 90.832715 c 0,-0.42558 0.34193,-0.76469 0.76991,-0.76469 h 134.08119 c 0.4279,0 0.7698,0.33911 0.7698,0.76358 v 61.029655 h 67.2037 V 20.465026 a 0.76993033,0.76357243 0 0 0 -0.7699,-0.76358 z"
     p-id="5302"
     id="path2"
     inkscape:connector-curvature="0"
     style="opacity:0.95999995;stroke-width:0.53156686" />
  <path
     d="m 292.31117,132.28685 a 30.468863,30.217259 0 0 0 -29.74988,28.70586 v 175.41495 a 30.468863,30.217259 0 0 0 44.91638,25.02271 l 11.60557,-5.85702 v 0.56145 L 426.40927,302.50619 533.71943,248.8956 426.39343,195.25126 319.08324,141.62378 v 0.16842 l -11.60557,-5.87277 a 30.468863,30.217259 0 0 0 -15.1665,-3.63258 z m 60.1678,66.13887 a 13.145429,13.036877 0 0 1 6.53875,1.57878 l 5.01587,2.54674 v -0.10218 l 46.2864,23.13849 46.32037,23.15532 -46.32037,23.12047 -46.2864,23.13966 v -0.22122 l -5.01587,2.54673 a 13.145429,13.036877 0 0 1 -19.3762,-10.83038 v -75.66325 a 13.145429,13.036877 0 0 1 12.83745,-12.39233 z"
     p-id="5303"
     id="path4"
     inkscape:connector-curvature="0"
     style="fill:#ff0000;stroke-width:0.53156686" />
</svg>